# xmcd
#
# Track frame offsets:
#	150
#	7223
#	28990
#	65871
#	98980
#	125174
#	163241
#
# Disc length: 2575 seconds
#
# Revision: 0
# Processed by: cddbd v1.5.2PL0 Copyright (c) Steve Scherf et al.
# Submitted via: EasyCDDAExtractor 9.0.0.1
#
DISCID=6c0a0d07
DTITLE=Black Sabbath - International Amphitheater Chicago 23-08-78 Disc 1 Rema
DTITLE=ster
DYEAR=1978
DGENRE=Hard Rock
TTITLE0=Supertzar
TTITLE1=Symptom Of The Universe
TTITLE2=War Pigs
TTITLE3=Snowblind
TTITLE4=Never Say Die 
TTITLE5=Black Sabbath
TTITLE6=Dirty Women
EXTD=
EXTT0=
EXTT1=
EXTT2=
EXTT3=
EXTT4=
EXTT5=
EXTT6=
PLAYORDER=
